<?xml version="1.0" standalone="no"?>
<!DOCTYPE svg PUBLIC "-//W3C//DTD SVG 20010904//EN"
 "http://www.w3.org/TR/2001/REC-SVG-20010904/DTD/svg10.dtd">
<svg version="1.0" xmlns="http://www.w3.org/2000/svg"
 width="2048.000000pt" height="1582.000000pt" viewBox="0 0 2048.000000 1582.000000"
 preserveAspectRatio="xMidYMid meet">

<g transform="translate(0.000000,1582.000000) scale(0.100000,-0.100000)"
fill="#000000" stroke="none">
<path d="M13230 10534 c-230 -26 -469 -137 -625 -289 -123 -121 -204 -253
-259 -420 -51 -157 -60 -225 -60 -440 0 -214 7 -269 60 -437 107 -338 384
-593 739 -681 124 -31 170 -37 288 -37 419 0 781 207 960 548 44 82 91 221
113 328 25 125 30 361 10 485 -52 320 -191 574 -401 734 -178 136 -384 203
-640 210 -82 2 -166 1 -185 -1z m331 -345 c140 -36 264 -106 347 -198 234
-259 278 -720 100 -1063 -92 -178 -264 -305 -465 -344 -88 -17 -235 -18 -319
-3 -361 64 -594 383 -594 814 0 238 78 453 223 612 44 48 164 127 234 153 142
54 330 65 474 29z"/>
<path d="M10900 10523 c-205 -34 -360 -130 -443 -271 -65 -110 -81 -178 -81
-327 0 -117 3 -137 28 -200 52 -133 120 -220 228 -288 47 -30 218 -106 288
-128 100 -31 436 -161 473 -182 116 -68 160 -258 95 -408 -22 -53 -60 -90
-117 -116 -38 -18 -97 -20 -701 -26 l-245 -2 0 -155 0 -155 410 -3 c412 -3
576 5 666 32 173 53 292 182 345 376 25 91 25 302 0 385 -31 102 -83 190 -150
253 -88 82 -128 100 -535 248 -233 85 -289 112 -346 169 -64 63 -90 125 -89
215 0 86 18 134 72 188 53 52 112 74 217 80 85 4 573 -22 643 -34 l32 -6 0
169 0 169 -207 12 c-196 12 -528 14 -583 5z"/>
<path d="M8274 10511 c-2 -2 -4 -272 -4 -600 l1 -596 22 30 c66 92 201 206
305 259 l32 17 -2 445 -3 444 -173 3 c-96 1 -176 0 -178 -2z"/>
<path d="M9525 10495 c-6 -11 -30 -49 -52 -85 -22 -36 -66 -108 -99 -160 -111
-181 -231 -355 -293 -425 -135 -151 -340 -325 -463 -393 -137 -75 -242 -193
-314 -352 l-29 -65 -3 -372 -3 -373 181 0 180 0 0 359 0 359 40 50 c47 61 99
97 203 145 154 71 269 165 334 272 17 28 183 275 371 550 l340 500 -32 2 c-17
1 -103 4 -190 5 -150 3 -160 2 -171 -17z"/>
<path d="M6525 10498 c-2 -7 -18 -62 -35 -123 -18 -60 -47 -157 -65 -215 -18
-58 -44 -143 -58 -190 -53 -181 -117 -391 -162 -535 -26 -82 -63 -202 -82
-265 -19 -63 -49 -162 -68 -220 -19 -58 -52 -166 -74 -240 -53 -181 -84 -282
-110 -357 -11 -34 -21 -67 -21 -73 0 -6 62 -10 178 -10 l178 0 86 278 86 277
480 3 481 2 61 -192 c34 -106 74 -231 89 -278 l27 -85 172 -3 c95 -1 172 1
172 5 0 11 -70 244 -250 828 -56 182 -116 380 -135 440 -18 61 -63 207 -100
325 -116 376 -133 433 -165 538 l-31 102 -325 0 c-251 0 -326 -3 -329 -12z
m467 -570 c37 -112 103 -318 148 -458 45 -140 88 -273 95 -295 7 -22 11 -43 8
-47 -2 -5 -175 -8 -384 -8 -309 0 -379 2 -379 13 0 8 9 40 19 73 10 32 42 133
70 224 29 91 56 176 61 190 4 14 43 134 86 268 l78 242 66 0 66 0 66 -202z"/>
<path d="M9259 9294 c-17 -33 -101 -109 -151 -137 -25 -15 -36 -27 -32 -37 3
-8 40 -71 83 -140 99 -158 275 -443 366 -594 l70 -116 204 0 c199 0 203 0 190
19 -66 93 -222 323 -299 444 -275 429 -386 587 -410 587 -4 0 -13 -12 -21 -26z"/>
<path d="M6067 7766 c-131 -36 -206 -178 -177 -336 22 -119 78 -188 173 -211
130 -31 255 26 297 135 12 34 2 46 -40 45 -19 0 -30 -10 -46 -42 -26 -53 -71
-80 -138 -81 -67 -1 -113 26 -146 84 -34 62 -35 194 -2 257 59 113 211 125
279 21 19 -28 32 -38 53 -38 15 0 29 3 33 6 8 8 -19 73 -41 97 -53 59 -160 87
-245 63z"/>
<path d="M6859 7771 c-136 -28 -221 -160 -205 -318 11 -103 54 -176 131 -216
57 -30 193 -30 250 0 92 49 134 127 135 249 0 133 -44 220 -132 262 -50 23
-128 33 -179 23z m145 -84 c59 -33 89 -99 89 -196 0 -90 -23 -144 -80 -188
-31 -24 -46 -28 -97 -27 -78 0 -118 21 -153 82 -25 41 -28 57 -28 132 0 88 15
139 52 172 58 53 150 63 217 25z"/>
<path d="M11290 7771 c-93 -19 -165 -85 -190 -175 -18 -66 -9 -200 17 -251 42
-81 102 -123 188 -132 111 -12 210 39 250 127 16 35 17 43 4 51 -29 18 -59 10
-70 -18 -48 -127 -241 -129 -300 -4 -17 35 -22 65 -22 128 0 71 4 87 28 128
63 108 215 113 277 9 16 -28 26 -34 54 -34 39 0 41 7 15 58 -45 87 -148 134
-251 113z"/>
<path d="M13190 7771 c-143 -31 -233 -184 -201 -343 26 -130 101 -203 222
-214 127 -12 225 40 272 145 25 55 29 172 8 243 -34 120 -172 197 -301 169z
m163 -94 c47 -35 70 -89 75 -170 10 -155 -82 -252 -217 -232 -85 13 -151 108
-151 217 0 63 27 134 66 173 38 38 57 44 136 41 43 -2 64 -8 91 -29z"/>
<path d="M7478 7758 c-3 -7 -4 -130 -3 -273 l3 -260 36 -3 37 -3 -1 201 c-1
111 0 204 3 206 2 3 42 -51 88 -118 200 -295 190 -283 237 -286 l42 -3 -2 273
-3 273 -30 0 -30 0 -5 -210 -5 -210 -30 41 c-16 22 -84 118 -150 212 -112 161
-121 172 -151 172 -18 0 -34 -6 -36 -12z"/>
<path d="M8307 7749 c-105 -55 -102 -199 5 -249 24 -11 80 -29 125 -41 94 -24
123 -46 123 -93 0 -52 -37 -79 -113 -84 -53 -3 -67 0 -97 20 -32 22 -52 49
-64 91 -4 11 -15 17 -36 17 -28 0 -30 -3 -30 -35 0 -156 245 -226 371 -107 31
29 40 47 45 82 13 95 -36 146 -159 169 -103 19 -135 31 -156 58 -29 36 -26 69
8 104 26 25 37 29 88 29 72 0 101 -15 126 -62 16 -31 24 -38 49 -38 29 0 30 2
24 33 -8 44 -35 78 -82 104 -53 31 -171 32 -227 2z"/>
<path d="M8897 7764 c-4 -4 -7 -20 -7 -36 l0 -28 90 0 c65 0 90 -3 90 -12 0
-7 1 -114 3 -238 l2 -225 38 -3 37 -3 0 240 0 241 91 0 90 0 -3 33 -3 32 -211
3 c-115 1 -213 -1 -217 -4z"/>
<path d="M9627 7763 c-4 -3 -7 -127 -7 -275 l0 -268 35 0 34 0 3 113 3 112 68
3 c44 2 74 -2 84 -9 8 -7 46 -59 85 -116 l70 -103 44 0 c39 0 59 12 36 22 -5
2 -32 39 -62 83 -29 44 -66 94 -82 111 l-29 31 31 7 c44 8 85 40 100 76 19 45
8 125 -21 157 -43 47 -82 56 -240 60 -80 2 -148 0 -152 -4z m296 -74 c56 -25
64 -116 14 -153 -25 -18 -42 -21 -135 -21 l-107 0 -3 93 -3 92 105 0 c58 0
116 -5 129 -11z"/>
<path d="M10367 7763 c-4 -3 -7 -97 -7 -207 0 -215 8 -255 58 -299 68 -61 222
-63 306 -4 57 40 66 79 66 310 l0 208 -32 -3 -33 -3 -5 -207 c-5 -190 -7 -209
-26 -235 -53 -71 -194 -65 -240 10 -17 28 -19 56 -22 235 l-3 202 -28 0 c-15
0 -31 -3 -34 -7z"/>
<path d="M11847 7764 c-4 -4 -7 -20 -7 -35 l0 -28 93 -3 92 -3 3 -237 2 -238
35 0 35 0 0 240 0 239 93 3 92 3 0 30 0 30 -216 3 c-118 1 -218 -1 -222 -4z"/>
<path d="M12597 7764 c-4 -4 -7 -128 -7 -276 l0 -268 40 0 40 0 -2 273 -3 272
-30 3 c-17 2 -34 0 -38 -4z"/>
<path d="M13825 7757 c-3 -7 -4 -129 -3 -272 l3 -260 33 -3 32 -3 0 206 c0
134 4 205 10 203 9 -3 103 -136 233 -330 49 -74 54 -78 90 -78 l37 0 0 273 0
273 -30 2 -30 2 0 -204 c0 -113 -3 -207 -8 -210 -4 -2 -31 30 -59 72 -127 189
-224 326 -235 334 -20 12 -68 9 -73 -5z"/>
</g>
</svg>
